<svg xmlns="http://www.w3.org/2000/svg" width="1200" height="460" viewBox="0 0 1200 460" role="img" aria-labelledby="title desc">
  <title id="title">${title}</title>
  <desc id="desc">${desc}</desc>
  <defs>
    <linearGradient id="hero-bg" x1="0" y1="0" x2="1" y2="1">
      <stop offset="0" stop-color="#F8FAFC"/>
      <stop offset="0.54" stop-color="#EEF4FF"/>
      <stop offset="1" stop-color="#E8FFF7"/>
    </linearGradient>
    <linearGradient id="hero-accent" x1="0" y1="0" x2="1" y2="0">
      <stop offset="0" stop-color="#5B8DEF"/>
      <stop offset="0.55" stop-color="#8B7CF6"/>
      <stop offset="1" stop-color="#4FBF9F"/>
    </linearGradient>
  </defs>
  <rect width="1200" height="460" rx="28" fill="url(#hero-bg)"/>
  <path d="M80 350 C210 260 320 378 455 286 S690 235 790 160 S1010 80 1120 138" fill="none" stroke="#D8E1EE" stroke-width="24" stroke-linecap="round"/>
  <path d="M80 350 C210 260 320 378 455 286 S690 235 790 160 S1010 80 1120 138" fill="none" stroke="url(#hero-accent)" stroke-width="7" stroke-linecap="round"/>
  <g fill="none" stroke="#D8E1EE" stroke-width="1" opacity="0.6">
    <path d="M100 80 H1100"/>
    <path d="M100 160 H1100"/>
    <path d="M100 240 H1100"/>
    <path d="M100 320 H1100"/>
    <path d="M180 54 V380"/>
    <path d="M360 54 V380"/>
    <path d="M540 54 V380"/>
    <path d="M720 54 V380"/>
    <path d="M900 54 V380"/>
  </g>
  <g transform="translate(82 76)" font-family="${font_family}">
    <rect x="0" y="0" width="132" height="36" rx="18" fill="#EDE9FE" stroke="#D8E1EE"/>
    <text x="22" y="24" fill="#111827" font-size="16" font-weight="700">ni-kernel</text>
    <text x="0" y="112" fill="#111827" font-size="54" font-weight="800">Intent Lock</text>
    <text x="0" y="176" fill="#111827" font-size="54" font-weight="800">before run</text>
    <text x="2" y="230" fill="#475569" font-size="24" font-weight="600">Project Intent Compiler for AI Agents</text>
    <rect x="0" y="268" width="178" height="38" rx="10" fill="#DCEBFF"/>
    <text x="20" y="293" fill="#111827" font-size="16" font-weight="700">readiness gate</text>
    <rect x="194" y="268" width="140" height="38" rx="10" fill="#DCFCE7"/>
    <text x="214" y="293" fill="#111827" font-size="16" font-weight="700">lockfile</text>
  </g>
  <g transform="translate(662 84)" font-family="${font_family}">
    <rect x="0" y="0" width="430" height="292" rx="20" fill="#FFFFFF" stroke="#D8E1EE"/>
    <rect x="32" y="32" width="366" height="48" rx="12" fill="#F8FAFC" stroke="#D8E1EE"/>
    <text x="58" y="62" fill="#111827" font-size="17" font-weight="700">conversation</text>
    <path d="M202 56 H254" stroke="#5B8DEF" stroke-width="3" stroke-linecap="round"/>
    <path d="M246 47 L258 56 L246 65" fill="none" stroke="#5B8DEF" stroke-width="3" stroke-linecap="round" stroke-linejoin="round"/>
    <text x="282" y="62" fill="#111827" font-size="17" font-weight="700">contract</text>
    <path d="M215 92 V124" stroke="#D8E1EE" stroke-width="3" stroke-linecap="round"/>
    <rect x="32" y="124" width="366" height="56" rx="14" fill="#EEF4FF" stroke="#D8E1EE"/>
    <circle cx="68" cy="152" r="14" fill="#5B8DEF"/>
    <path d="M61 152 H75 M68 145 V159" stroke="#FFFFFF" stroke-width="3" stroke-linecap="round"/>
    <text x="96" y="158" fill="#111827" font-size="18" font-weight="700">status blocks ambiguity</text>
    <path d="M215 192 V214" stroke="#D8E1EE" stroke-width="3" stroke-linecap="round"/>
    <rect x="32" y="214" width="174" height="46" rx="12" fill="#111827"/>
    <text x="76" y="243" fill="#FFFFFF" font-size="17" font-weight="700">end locks</text>
    <rect x="224" y="214" width="174" height="46" rx="12" fill="#DCFCE7" stroke="#D8E1EE"/>
    <text x="266" y="243" fill="#111827" font-size="17" font-weight="700">run compiles</text>
  </g>
</svg>
