<svg xmlns="http://www.w3.org/2000/svg" width="1200" height="630" viewBox="0 0 1200 630" role="img" aria-labelledby="title desc">
  <title id="title">${title}</title>
  <desc id="desc">${desc}</desc>
  <defs>
    <linearGradient id="social-bg" x1="0" x2="1" y1="0" y2="1">
      <stop offset="0" stop-color="#15243A"/>
      <stop offset="0.58" stop-color="#243044"/>
      <stop offset="1" stop-color="#2D5A52"/>
    </linearGradient>
    <linearGradient id="social-accent" x1="0" x2="1">
      <stop offset="0" stop-color="#F4B860"/>
      <stop offset="1" stop-color="#70D6C7"/>
    </linearGradient>
    <filter id="social-shadow" x="-20%" y="-20%" width="140%" height="140%">
      <feDropShadow dx="0" dy="16" stdDeviation="20" flood-color="#07111F" flood-opacity="0.25"/>
    </filter>
  </defs>

  <rect width="1200" height="630" fill="url(#social-bg)"/>
  <path d="M64 474 C202 346 300 520 444 376 S680 314 792 206 S1018 92 1142 180" fill="none" stroke="#FFFFFF" stroke-opacity="0.11" stroke-width="34" stroke-linecap="round"/>
  <path d="M66 478 C204 350 302 524 446 380 S682 318 794 210 S1020 96 1144 184" fill="none" stroke="url(#social-accent)" stroke-opacity="0.95" stroke-width="7" stroke-linecap="round"/>

  <g transform="translate(76 70)" font-family="${font_family}">
    <rect x="0" y="0" width="158" height="44" rx="22" fill="#FFFFFF" fill-opacity="0.13"/>
    <text x="28" y="29" fill="#E9F4F0" font-size="18" font-weight="800">ni-kernel</text>

    <text x="0" y="154" fill="#FFFFFF" font-size="66" font-weight="850">${headline_line_1}</text>
    <text x="0" y="232" fill="#FFFFFF" font-size="66" font-weight="850">${headline_line_2}</text>
    <text x="0" y="324" fill="#FFFFFF" font-size="66" font-weight="850">${headline_line_3}</text>
    <text x="0" y="402" fill="#FFFFFF" font-size="66" font-weight="850">${headline_line_4}</text>

    <text x="4" y="482" fill="#D9E7E2" font-size="30" font-weight="650">${subcopy}</text>
  </g>

  <g transform="translate(758 126)" filter="url(#social-shadow)" font-family="${font_family}">
    <rect x="0" y="0" width="352" height="352" rx="28" fill="#F7FBF8"/>
    <rect x="36" y="44" width="126" height="44" rx="22" fill="#E8F0EB"/>
    <text x="60" y="72" fill="#243044" font-size="16" font-weight="800">conversation</text>
    <path d="M174 66 H222" stroke="#8AA096" stroke-width="3" stroke-linecap="round"/>
    <path d="M212 57 L224 66 L212 75" fill="none" stroke="#8AA096" stroke-width="3" stroke-linecap="round" stroke-linejoin="round"/>
    <rect x="236" y="44" width="80" height="44" rx="22" fill="#FFF2D8"/>
    <text x="258" y="72" fill="#243044" font-size="16" font-weight="800">plan</text>

    <path d="M276 92 V132" stroke="#8AA096" stroke-width="3" stroke-linecap="round"/>
    <path d="M267 122 L276 134 L285 122" fill="none" stroke="#8AA096" stroke-width="3" stroke-linecap="round" stroke-linejoin="round"/>
    <rect x="196" y="136" width="120" height="44" rx="22" fill="#DFF5EF"/>
    <text x="232" y="164" fill="#243044" font-size="16" font-weight="800">status</text>

    <path d="M196 158 H132" stroke="#8AA096" stroke-width="3" stroke-linecap="round"/>
    <path d="M142 149 L130 158 L142 167" fill="none" stroke="#8AA096" stroke-width="3" stroke-linecap="round" stroke-linejoin="round"/>
    <rect x="40" y="136" width="88" height="44" rx="22" fill="#25334A"/>
    <text x="66" y="164" fill="#FFFFFF" font-size="16" font-weight="800">lock</text>

    <path d="M84 180 V226 H144" stroke="#8AA096" stroke-width="3" stroke-linecap="round"/>
    <path d="M134 217 L146 226 L134 235" fill="none" stroke="#8AA096" stroke-width="3" stroke-linecap="round" stroke-linejoin="round"/>
    <rect x="148" y="204" width="168" height="44" rx="22" fill="#EDF1FF"/>
    <text x="178" y="232" fill="#243044" font-size="16" font-weight="800">compile prompt</text>

    <circle cx="78" cy="286" r="22" fill="#70D6C7"/>
    <path d="M68 286 L76 294 L90 276" fill="none" stroke="#142236" stroke-width="4" stroke-linecap="round" stroke-linejoin="round"/>
    <text x="114" y="293" fill="#385064" font-size="18" font-weight="700">pre-runtime control layer</text>
  </g>
</svg>
