<svg xmlns="http://www.w3.org/2000/svg" width="520" height="320" viewBox="0 0 520 320" role="img" aria-labelledby="title desc">
  <title id="title">Lock contract</title>
  <desc id="desc">Readiness and lock commands gate the accepted plan, hashes, and source of truth.</desc>
  <defs>
    <linearGradient id="card-bg-8" x1="0" y1="0" x2="1" y2="1">
      <stop offset="0" stop-color="#EDE9FE"/>
      <stop offset="1" stop-color="#FFFFFF"/>
    </linearGradient>
  </defs>
  <rect width="520" height="320" rx="20" fill="url(#card-bg-8)"/>
  <rect x="28" y="28" width="464" height="264" rx="16" fill="#FFFFFF" stroke="#D8E1EE"/>
  <g transform="translate(54 56)" font-family="-apple-system, BlinkMacSystemFont, &quot;Segoe UI&quot;, Helvetica, Arial, sans-serif">
    <circle cx="24" cy="24" r="24" fill="#8B7CF6"/>
    <path d="M18 24 H34 V36 H18 Z M22 24 V19 A8 8 0 0 1 30 19 V24" fill="none" stroke="#FFFFFF" stroke-width="4" stroke-linecap="round" stroke-linejoin="round"/>
    <text x="68" y="32" fill="#111827" font-size="28" font-weight="800">Lock</text>
    <g transform="translate(0 82)" font-size="17" font-weight="700">
      <g transform="translate(0 0)">
        <circle cx="10" cy="10" r="6" fill="#8B7CF6"/>
        <path d="M28 10 H396" stroke="#D8E1EE" stroke-width="2" stroke-linecap="round"/>
        <text x="28" y="16" fill="#475569">status gate</text>
      </g>
      <g transform="translate(0 42)">
        <circle cx="10" cy="10" r="6" fill="#8B7CF6"/>
        <path d="M28 10 H396" stroke="#D8E1EE" stroke-width="2" stroke-linecap="round"/>
        <text x="28" y="16" fill="#475569">hash proof</text>
      </g>
      <g transform="translate(0 84)">
        <circle cx="10" cy="10" r="6" fill="#8B7CF6"/>
        <path d="M28 10 H396" stroke="#D8E1EE" stroke-width="2" stroke-linecap="round"/>
        <text x="28" y="16" fill="#475569">source of truth</text>
      </g>
    </g>
    <rect x="0" y="190" width="180" height="36" rx="10" fill="#EDE9FE" stroke="#D8E1EE"/>
    <text x="18" y="214" fill="#111827" font-size="15" font-weight="700">ready means checked</text>
  </g>
</svg>

